Coordinates
version=1
nRows=13
nColumns=53
inDegrees=yes

Units are S.I. units (second, meters, Newtons, ...)
If the header above contains a line with 'inDegrees', this indicates whether rotational values are in degrees (yes) or radians (no).

endheader
time	pelvis_tilt	pelvis_list	pelvis_rot	pelvis_tx	pelvis_ty	pelvis_tz	hip_flex_r	hip_add_r	hip_rot_r	pf_flex_r	pf_rot_r	pf_tilt_r	pf_tx_r	pf_ty_r	pf_tz_r	knee_flex_r	knee_add_r	knee_rot_r	knee_tx_r	knee_ty_r	knee_tz_r	ankle_flex_r	subt_angle_r	mtp_angle_r	hip_flex_l	hip_add_l	hip_rot_l	pf_l_r3	pf_l_tx	pf_l_ty	knee_flex_l	ankle_flex_l	subt_angle_l	mtp_angle_l	lumbar_ext	lumbar_latbend	lumbar_rot	neck_ext	neck_latbend	neck_rot	arm_add_r	arm_flex_r	arm_rot_r	elbow_flex_r	pro_sup_r	wrist_flex_r	arm_add_l	arm_flex_l	arm_rot_l	elbow_flex_l	pro_sup_l	wrist_flex_l
      6.50000000	    -10.95330312	     -2.26391756	      8.38144963	      1.08317455	      0.87409185	      0.21660271	     11.29675559	      0.15744074	    -12.20538256	      0.00000000	      0.00000000	      0.00000000	      0.00092502	      0.00008727	      0.00006981	      5.53981543	      0.00002396	      0.00008889	     -0.00000154	     -0.00001175	     -0.00000199	      9.26823300	     -2.54886371	      0.00000000	     13.00540580	     -0.94685219	     -8.42604155	      0.06513700	      0.00077405	     -0.00730790	      0.05936146	      0.04231546	     -0.19856957	      0.00000000	      5.85641686	     -0.15306012	    -12.20379186	      0.00000000	      0.00000000	      0.00000000	      0.00000000	      0.00000000	      0.00000000	      0.00000000	     60.00000000	      0.00000000	      0.00000000	      0.00000000	      0.00000000	      0.00000000	     60.00000000	      0.00000000
      6.50400000	    -10.94203038	     -2.25824933	      8.36596899	      1.08321976	      0.87410343	      0.21659180	     11.27810586	      0.15534517	    -12.18027024	      0.00000000	      0.00000000	      0.00000000	      0.00092502	      0.00008727	      0.00006981	      5.53339775	      0.00002428	      0.00008842	     -0.00000154	     -0.00001175	     -0.00000201	      9.25124967	     -2.54878181	      0.00000000	     12.96310866	     -0.94549005	     -8.01062443	      0.06513700	      0.00077405	     -0.00730790	      0.05758056	      0.04174374	     -0.19873142	      0.00000000	      5.85073952	     -0.15340571	    -12.18221066	      0.00000000	      0.00000000	      0.00000000	      0.00000000	      0.00000000	      0.00000000	      0.00000000	     60.00000000	      0.00000000	      0.00000000	      0.00000000	      0.00000000	      0.00000000	     60.00000000	      0.00000000
      6.50800000	    -10.93877031	     -2.25571978	      8.35589557	      1.08315193	      0.87410993	      0.21662441	     11.29152784	      0.15550910	    -12.14510182	      0.00000000	      0.00000000	      0.00000000	      0.00092502	      0.00008727	      0.00006981	      5.55636944	      0.00002442	      0.00008833	     -0.00000152	     -0.00001177	     -0.00000200	      9.25172855	     -2.54402446	      0.00000000	     12.97714848	     -0.94385639	     -8.32268497	      0.06513700	      0.00077405	     -0.00730790	      0.05891325	      0.04151622	     -0.19687867	      0.00000000	      5.83450018	     -0.16075179	    -12.14052181	      0.00000000	      0.00000000	      0.00000000	      0.00000000	      0.00000000	      0.00000000	      0.00000000	     60.00000000	      0.00000000	      0.00000000	      0.00000000	      0.00000000	      0.00000000	     60.00000000	      0.00000000
      6.51200000	    -10.92921643	     -2.25448712	      8.35872107	      1.08324197	      0.87411687	      0.21656210	     11.26045536	      0.15274443	    -12.17479800	      0.00000000	      0.00000000	      0.00000000	      0.00092502	      0.00008727	      0.00006981	      5.53090855	      0.00002504	      0.00008884	     -0.00000154	     -0.00001174	     -0.00000200	      9.24704817	     -2.54835935	      0.00000000	     12.91884191	     -0.94368190	     -7.49692473	      0.06513700	      0.00077405	     -0.00730790	      0.05549814	      0.04106590	     -0.19820266	      0.00000000	      5.84014552	     -0.15277698	    -12.16896274	      0.00000000	      0.00000000	      0.00000000	      0.00000000	      0.00000000	      0.00000000	      0.00000000	     60.00000000	      0.00000000	      0.00000000	      0.00000000	      0.00000000	      0.00000000	     60.00000000	      0.00000000
      6.51600000	    -10.92785940	     -2.25634562	      8.37283470	      1.08325686	      0.87411740	      0.21651405	     11.25030661	      0.14926012	    -12.21909189	      0.00000000	      0.00000000	      0.00000000	      0.00092502	      0.00008727	      0.00006981	      5.51947520	      0.00002425	      0.00008872	     -0.00000154	     -0.00001173	     -0.00000200	      9.25952514	     -2.56346426	      0.00000000	     12.91152966	     -0.94656666	     -7.30826054	      0.06513700	      0.00077405	     -0.00730790	      0.05481937	      0.04140866	     -0.19836129	      0.00000000	      5.84236952	     -0.14991120	    -12.19968013	      0.00000000	      0.00000000	      0.00000000	      0.00000000	      0.00000000	      0.00000000	      0.00000000	     60.00000000	      0.00000000	      0.00000000	      0.00000000	      0.00000000	      0.00000000	     60.00000000	      0.00000000
      6.52000000	    -10.90174891	     -2.24662463	      8.36117285	      1.08327860	      0.87416421	      0.21652908	     11.22130486	      0.14630234	    -12.19350156	      0.00000000	      0.00000000	      0.00000000	      0.00092502	      0.00008727	      0.00006981	      5.52092942	      0.00002443	      0.00008884	     -0.00000153	     -0.00001176	     -0.00000200	      9.27242281	     -2.55576108	      0.00000000	     12.86315980	     -0.93838453	     -7.07876760	      0.06513700	      0.00077405	     -0.00730790	      0.05408388	      0.04277680	     -0.18961943	      0.00000000	      5.81268591	     -0.15955845	    -12.17026760	      0.00000000	      0.00000000	      0.00000000	      0.00000000	      0.00000000	      0.00000000	      0.00000000	     60.00000000	      0.00000000	      0.00000000	      0.00000000	      0.00000000	      0.00000000	     60.00000000	      0.00000000
      6.52400000	    -10.90129987	     -2.24752803	      8.36117257	      1.08327762	      0.87416885	      0.21651276	     11.22141552	      0.14625845	    -12.19349659	      0.00000000	      0.00000000	      0.00000000	      0.00092502	      0.00008727	      0.00006981	      5.52103382	      0.00002444	      0.00008901	     -0.00000154	     -0.00001175	     -0.00000200	      9.27234803	     -2.55572447	      0.00000000	     12.86337317	     -0.93896784	     -7.07861554	      0.06513700	      0.00077405	     -0.00730790	      0.05407990	      0.04277862	     -0.18962037	      0.00000000	      5.81278868	     -0.15967879	    -12.17023055	      0.00000000	      0.00000000	      0.00000000	      0.00000000	      0.00000000	      0.00000000	      0.00000000	     60.00000000	      0.00000000	      0.00000000	      0.00000000	      0.00000000	      0.00000000	     60.00000000	      0.00000000
      6.52800000	    -10.92128449	     -2.24757025	      8.36289765	      1.08327540	      0.87415217	      0.21651234	     11.24147553	      0.14339533	    -12.19169507	      0.00000000	      0.00000000	      0.00000000	      0.00092502	      0.00008727	      0.00006981	      5.51766541	      0.00002453	      0.00008874	     -0.00000154	     -0.00001175	     -0.00000200	      9.26892699	     -2.55286368	      0.00000000	     12.89606818	     -0.94236289	     -7.53265154	      0.06513700	      0.00077405	     -0.00730790	      0.05555181	      0.04361692	     -0.18842414	      0.00000000	      5.84184978	     -0.16728203	    -12.15211170	      0.00000000	      0.00000000	      0.00000000	      0.00000000	      0.00000000	      0.00000000	      0.00000000	     60.00000000	      0.00000000	      0.00000000	      0.00000000	      0.00000000	      0.00000000	     60.00000000	      0.00000000
      6.53200000	    -10.98645946	     -2.26953330	      8.39025275	      1.08306127	      0.87406082	      0.21650128	     11.35128700	      0.14460245	    -12.25008981	      0.00000000	      0.00000000	      0.00000000	      0.00092502	      0.00008727	      0.00006981	      5.56431467	      0.00002409	      0.00008890	     -0.00000155	     -0.00001177	     -0.00000198	      9.24166529	     -2.53851851	      0.00000000	     13.06247104	     -0.95700737	     -8.80706056	      0.06513700	      0.00077405	     -0.00730790	      0.06074042	      0.04344133	     -0.19776653	      0.00000000	      5.88978237	     -0.16221151	    -12.17408653	      0.00000000	      0.00000000	      0.00000000	      0.00000000	      0.00000000	      0.00000000	      0.00000000	     60.00000000	      0.00000000	      0.00000000	      0.00000000	      0.00000000	      0.00000000	     60.00000000	      0.00000000
      6.53600000	    -10.98596191	     -2.27182153	      8.39725285	      1.08302723	      0.87406078	      0.21650142	     11.35124564	      0.14792219	    -12.23349830	      0.00000000	      0.00000000	      0.00000000	      0.00092502	      0.00008727	      0.00006981	      5.56267229	      0.00002380	      0.00008862	     -0.00000155	     -0.00001177	     -0.00000198	      9.26452209	     -2.54144999	      0.00000000	     13.07111305	     -0.95656056	     -9.07118426	      0.06513700	      0.00077405	     -0.00730790	      0.06154368	      0.04321586	     -0.19704851	      0.00000000	      5.89075698	     -0.16305784	    -12.19544106	      0.00000000	      0.00000000	      0.00000000	      0.00000000	      0.00000000	      0.00000000	      0.00000000	     60.00000000	      0.00000000	      0.00000000	      0.00000000	      0.00000000	      0.00000000	     60.00000000	      0.00000000
      6.54000000	    -10.98861756	     -2.27479992	      8.40666469	      1.08297847	      0.87405144	      0.21648524	     11.35820785	      0.14798920	    -12.24263099	      0.00000000	      0.00000000	      0.00000000	      0.00092502	      0.00008727	      0.00006981	      5.56608934	      0.00002420	      0.00008869	     -0.00000155	     -0.00001178	     -0.00000197	      9.26246514	     -2.54548842	      0.00000000	     13.08712057	     -0.95854639	     -9.15967600	      0.06513700	      0.00077405	     -0.00730790	      0.06201965	      0.04329667	     -0.19740397	      0.00000000	      5.88729439	     -0.16312012	    -12.20827068	      0.00000000	      0.00000000	      0.00000000	      0.00000000	      0.00000000	      0.00000000	      0.00000000	     60.00000000	      0.00000000	      0.00000000	      0.00000000	      0.00000000	      0.00000000	     60.00000000	      0.00000000
      6.54400000	    -10.98828282	     -2.27514101	      8.40674866	      1.08296274	      0.87404570	      0.21647782	     11.35858771	      0.14741907	    -12.24262736	      0.00000000	      0.00000000	      0.00000000	      0.00092502	      0.00008727	      0.00006981	      5.56584213	      0.00002380	      0.00008889	     -0.00000155	     -0.00001178	     -0.00000197	      9.26247700	     -2.54550370	      0.00000000	     13.08713164	     -0.95805262	     -9.15980294	      0.06513700	      0.00077405	     -0.00730790	      0.06202303	      0.04329594	     -0.19740649	      0.00000000	      5.88727081	     -0.16332152	    -12.20834258	      0.00000000	      0.00000000	      0.00000000	      0.00000000	      0.00000000	      0.00000000	      0.00000000	     60.00000000	      0.00000000	      0.00000000	      0.00000000	      0.00000000	      0.00000000	     60.00000000	      0.00000000
      6.54800000	    -10.98819589	     -2.27588395	      8.40662851	      1.08296032	      0.87404485	      0.21646254	     11.35898618	      0.14694381	    -12.24267269	      0.00000000	      0.00000000	      0.00000000	      0.00092502	      0.00008727	      0.00006981	      5.56577148	      0.00002405	      0.00008860	     -0.00000156	     -0.00001177	     -0.00000196	      9.26247952	     -2.54552289	      0.00000000	     13.08691714	     -0.95804147	     -9.16001140	      0.06513700	      0.00077405	     -0.00730790	      0.06202649	      0.04329492	     -0.19740834	      0.00000000	      5.88717810	     -0.16354246	    -12.20840893	      0.00000000	      0.00000000	      0.00000000	      0.00000000	      0.00000000	      0.00000000	      0.00000000	     60.00000000	      0.00000000	      0.00000000	      0.00000000	      0.00000000	      0.00000000	     60.00000000	      0.00000000
